<?xml version="1.0" standalone="no"?><!DOCTYPE svg PUBLIC "-//W3C//DTD SVG 1.1//EN" "http://www.w3.org/Graphics/SVG/1.1/DTD/svg11.dtd"><svg t="1774728146459" class="icon" viewBox="0 0 1024 1024" version="1.1" xmlns="http://www.w3.org/2000/svg" p-id="12162" xmlns:xlink="http://www.w3.org/1999/xlink" width="256" height="256"><path d="M104.3968 102.4h815.2064v666.9824H104.3968z" fill="#E4ECFD" p-id="12163"></path><path d="M206.7968 76.8h610.4064a128 128 0 0 1 128 128v462.1824a128 128 0 0 1-128 128H206.7968a128 128 0 0 1-128-128V204.8a128 128 0 0 1 128-128z m610.4064 666.9824a76.8 76.8 0 0 0 76.8-76.8V204.8a76.8 76.8 0 0 0-76.8-76.8H206.7968a76.8 76.8 0 0 0-76.8 76.8v462.1824a76.8 76.8 0 0 0 76.8 76.8z" fill="#346BF0" p-id="12164"></path><path d="M921.6 947.2H102.4a25.6 25.6 0 0 1-25.6-25.6 25.6 25.6 0 0 1 25.6-25.6h819.2a25.6 25.6 0 0 1 25.6 25.6 25.6 25.6 0 0 1-25.6 25.6z" fill="#346BF0" p-id="12165"></path><path d="M676.5056 543.0784h-128a25.6 25.6 0 1 1 0-51.2h128a25.6 25.6 0 1 1 0 51.2z" fill="#1EDBA7" p-id="12166"></path><path d="M676.5056 625.2544h-128a25.6 25.6 0 1 1 0-51.2h128a25.6 25.6 0 1 1 0 51.2z" fill="#1EDBA7" p-id="12167"></path><path d="M493.7216 365.1072H347.6992a25.6 25.6 0 0 1 0-51.2h146.0224a25.6 25.6 0 0 1 0 51.2z" fill="#1EDBA7" p-id="12168"></path><path d="M420.7104 438.1184a25.6 25.6 0 0 1-25.6-25.6V266.496a25.6 25.6 0 0 1 51.2 0v146.0224a25.6 25.6 0 0 1-25.6 25.6z" fill="#1EDBA7" p-id="12169"></path><path d="M347.6992 620.6976a25.6 25.6 0 0 1-18.1248-43.7248l328.6016-328.6016a25.6 25.6 0 1 1 36.1984 36.1984l-328.5504 328.6016a25.6 25.6 0 0 1-18.1248 7.5264z" fill="#1EDBA7" p-id="12170"></path></svg>