<?xml version="1.0" standalone="no"?><!DOCTYPE svg PUBLIC "-//W3C//DTD SVG 1.1//EN" "http://www.w3.org/Graphics/SVG/1.1/DTD/svg11.dtd"><svg t="1774590959562" class="icon" viewBox="0 0 1024 1024" version="1.1" xmlns="http://www.w3.org/2000/svg" p-id="93387" xmlns:xlink="http://www.w3.org/1999/xlink" width="200" height="200"><path d="M502.5 279.3c-58.5 0.6-107.6 44.7-107.6 107.4 0 11.9 2 23 4.8 33.7 3.8 14.2 10.1 27.1 18.5 38.4 26.5-8.2 54.7-12.9 84.2-13 31.3 0 61.2 5.2 89.3 14.3 8.2-11.3 14.2-24.7 17.3-39.8 1.7-8.3 2.7-17 2.6-26.3-1.1-67.6-41.9-115.4-109.1-114.7z" fill="#FDBA3E" p-id="93388"></path><path d="M502.5 445.9c-29.5 0-57.7 4.7-84.2 13 16.6 22.2 41.6 37.5 72.9 42.6 4.1 0.7 8.1 1.7 12.4 2 7.3 0 14.6-0.7 21.6-2 27.1-5 50.8-19.4 66.6-41.2-28.1-9.2-58-14.4-89.3-14.4z" fill="#8F3694" p-id="93389"></path><path d="M782.2 691.4c-1.2-8.3-2.8-16.5-4.6-24.5-16.9-74.4-60.1-135.2-118.6-174.1-8.1-5.4-16.5-10.4-25.2-14.9-13.4-7-27.4-12.9-42-17.6-15.8 21.8-39.5 36.2-66.6 41.2-7 1.3-14.2 2-21.6 2-4.3-0.3-8.3-1.3-12.4-2-31.3-5.1-56.3-20.4-72.9-42.6-16.4 5.1-32.2 11.6-47.1 19.4-7.7 4-15.2 8.4-22.4 13-62.9 40.4-108 104.1-122.3 175.6-1.6 8.1-2.9 16.2-3.7 24.5-2.7 27.1 13.5 42.3 35.9 42.3H482l-2-132.9c0-2.9 0.3-5.7 0.9-8.5 2.3-11.6 9.4-21.2 23.8-20.4 13.9-0.2 20.2 8.7 21.9 20.4 0.3 2.2 0.8 4.2 0.8 6.6v134.8h218.9c22.5 0 39.8-15.6 35.9-42.3zM535.8 555.8c-7.8 6.2-18.7 11-33 11.1-12.1 0.1-22.3-4.3-30-10.2-10.1-7.8-15.4-18.1-14.7-25 0.2-2.4 1-4.5 2.8-5.8 20.1-13.5 65.5-9.8 84.6-1.6 2.7 1.1 3.8 3.9 4 7.3 0.3 7-4.2 16.6-13.7 24.2z" fill="#FB536C" p-id="93390"></path><path d="M545.5 524.4c-19.1-8.2-64.5-12-84.6 1.6-1.9 1.2-2.6 3.4-2.8 5.8-0.7 6.9 4.7 17.2 14.7 25 7.7 5.9 17.9 10.3 30 10.2 14.3-0.1 25.2-4.9 33-11.1 9.5-7.6 14.1-17.3 13.7-24.1-0.2-3.4-1.4-6.2-4-7.4zM526.7 592.4c-1.7-11.7-8.1-20.6-21.9-20.4-14.4-0.9-21.5 8.8-23.8 20.4-0.5 2.8-0.9 5.6-0.9 8.5l2 132.9h45.4V598.9c0-2.3-0.5-4.4-0.8-6.5z" fill="#FDBA3E" p-id="93391"></path><path d="M280.3 470.3c-7.1-0.6-14.3-1-21.8-0.8-2.6 0.1-5.1 0.4-7.6 0.5-8.9 23-31.2 39.3-57 41.1-1.5 0.1-2.9 0.4-4.4 0.4-14.7 0-27.9-4.2-38.7-11.7-16.6 10.2-30.9 22.7-42.9 36.9C86.3 562.2 72 593.2 65.6 627c-4.2 22.4 7.8 39.8 29.5 39.8h131.4c14.4-71.6 59.5-135.2 122.3-175.6-20.4-11.1-43.3-18.6-68.5-20.9z" fill="#00A9DC" p-id="93392"></path><path d="M250 420.5c-9.6-25.1-32-41.2-60.5-40.2-36.2 1.2-65.6 29.4-65.6 65.6 1 24.7 11.3 43 26.9 54 13-8 27.4-14.6 43.1-19.6 17.4-5.5 36.4-9.1 57-10.3 2.9-7.5 4.5-15.6 4.2-24.1-0.3-9.2-2.2-17.7-5.1-25.4z" fill="#FDBA3E" p-id="93393"></path><path d="M193.9 480.3c-15.7 5-30.1 11.6-43.1 19.6 10.8 7.5 24 11.7 38.7 11.7 1.5 0 3-0.3 4.4-0.4 25.8-1.7 48.1-18.1 57-41.1-20.6 1.2-39.6 4.7-57 10.2z" fill="#CAC134" p-id="93394"></path><path d="M957.8 630.5c-5.2-35.6-20.9-67.7-44.6-93.7-13.2-14.5-28.8-27.2-46.6-37.5-11 7.9-24.9 12.4-40.9 12.2-5.4-0.1-10.7-0.9-15.8-2-21.4-4.9-38.9-19.2-46.2-39.7-1.3-0.1-2.5-0.2-3.7-0.3-8.7-0.4-17 0-25.3 0.7-28 2.3-53.4 10.2-75.8 22.6 58.5 38.9 101.7 99.8 118.6 174.1H928.4c19.3 0.1 32.4-15.5 29.4-36.4" fill="#00A9DC" p-id="93395"></path><path d="M825.7 380.3c-28.9-0.3-50.6 16.5-60.3 40.2-3.2 7.8-5 16.5-5.4 25.5-0.3 8.7 1.2 16.6 3.7 23.9 16.1 0.9 31.5 3.3 46.2 7 20.5 5.1 39.6 12.7 56.7 22.5 15.5-11.2 25.1-29.6 24.7-53.4 0-36.3-23.7-65.2-65.6-65.7z" fill="#FDBA3E" p-id="93396"></path><path d="M809.9 476.8c-14.7-3.7-30.1-6.1-46.2-7 7.3 20.5 24.8 34.8 46.2 39.7 5.1 1.2 10.3 2 15.8 2 16 0.2 29.9-4.3 40.9-12.2-17.1-9.8-36.2-17.4-56.7-22.5z" fill="#CAC134" p-id="93397"></path></svg>