<?xml version="1.0" standalone="no"?><!DOCTYPE svg PUBLIC "-//W3C//DTD SVG 1.1//EN" "http://www.w3.org/Graphics/SVG/1.1/DTD/svg11.dtd"><svg t="1774584612892" class="icon" viewBox="0 0 1024 1024" version="1.1" xmlns="http://www.w3.org/2000/svg" p-id="40382" xmlns:xlink="http://www.w3.org/1999/xlink" width="200" height="200"><path d="M835.226046 328.70941a44.817364 44.817364 0 0 0-45.10981 44.524918v513.681565a48.107383 48.107383 0 0 1-48.546052 47.814937H282.356704a48.107383 48.107383 0 0 1-48.546051-47.814937V373.234328c0-24.565472-20.178781-44.524918-45.109811-44.524918s-45.182922 19.959446-45.182921 44.524918v513.681565c0 75.377981 62.144795 136.645438 138.69256 136.645438h459.140369c76.547765 0 138.69256-61.267457 138.69256-136.645438V373.234328a44.598029 44.598029 0 0 0-44.817364-44.524918z m-165.597601 447.881194v-403.57561a44.817364 44.817364 0 0 0-45.182922-44.451807 44.744252 44.744252 0 0 0-44.963587 44.451807v403.57561c0 24.565472 20.251892 44.451806 45.182922 44.451806a44.598029 44.598029 0 0 0 44.963587-44.451806z m-225.183493 0v-403.57561a44.817364 44.817364 0 0 0-45.10981-44.451807 44.817364 44.817364 0 0 0-45.182922 44.451807v403.57561c0 24.565472 20.251892 44.451806 45.182922 44.451806 24.857918 0 45.10981-19.886334 45.10981-44.451806z m534.152792-592.13023h-148.635728v-51.178066C829.962016 59.732115 769.352563 0 694.705698 0H329.001856C254.428102 0 193.818649 59.732115 193.818649 133.282308v51.178066H45.10981c-24.93103 0-45.10981 19.959446-45.10981 44.524918s20.178781 44.451806 45.10981 44.451806h933.341711c24.93103 0 45.10981-19.886334 45.10981-44.451806s-20.032557-44.524918-44.963587-44.524918z m-238.709125 0H284.111381v-51.178066c0-24.565472 20.178781-44.451806 45.10981-44.451807h365.484507c24.93103 0 45.182922 19.886334 45.182921 44.451807v51.178066z" fill="#2c2c2c" p-id="40383"></path></svg>