<?xml version="1.0" standalone="no"?><!DOCTYPE svg PUBLIC "-//W3C//DTD SVG 1.1//EN" "http://www.w3.org/Graphics/SVG/1.1/DTD/svg11.dtd"><svg t="1774585068032" class="icon" viewBox="0 0 1024 1024" version="1.1" xmlns="http://www.w3.org/2000/svg" p-id="52398" xmlns:xlink="http://www.w3.org/1999/xlink" width="200" height="200"><path d="M512 128c-211.2 0-384 172.8-384 384s172.8 384 384 384 384-172.8 384-384-172.8-384-384-384z m-240.0256 417.5872c-11.9808-96 36.0448-199.168 129.6384-247.1936 115.2-60.0064 259.1744-16.7936 321.5872 98.4064h-199.168V331.9808c-33.6384 0-64.8192 4.8128-96.0512 19.2C358.4 387.2256 322.4064 461.6192 331.9808 536.064c0 16.7936-31.1808 43.2128-59.9552 9.5744z m350.4128 180.0192c-115.2 60.0064-259.1744 16.7936-321.5872-98.4064h199.168v62.4128c33.6384 2.4064 69.632-2.4064 98.4064-19.2a183.4496 183.4496 0 0 0 96.0512-180.0192c-7.2192-57.6 55.1936-45.568 57.5488-14.3872 9.6256 100.8128-38.4 201.5744-129.536 249.6z" fill="#3772ff" p-id="52399"></path></svg>