<?xml version="1.0" standalone="no"?><!DOCTYPE svg PUBLIC "-//W3C//DTD SVG 1.1//EN" "http://www.w3.org/Graphics/SVG/1.1/DTD/svg11.dtd"><svg t="1774718834524" class="icon" viewBox="0 0 1024 1024" version="1.1" xmlns="http://www.w3.org/2000/svg" p-id="8050" xmlns:xlink="http://www.w3.org/1999/xlink" width="256" height="256"><path d="M906.24 5.12H121.856C58.368 5.12 7.168 56.32 7.168 119.808v784.384c0 64 51.2 114.688 114.688 114.688H906.24c64 0 114.688-51.2 114.688-114.688V119.808C1027.072 56.32 969.728 5.12 906.24 5.12z m-392.192 869.376c-193.536 0-351.232-157.696-351.232-351.232 0-29.696 24.064-54.272 54.272-54.272S271.36 493.056 271.36 523.264c0 134.144 109.056 243.2 243.2 243.2s243.2-109.056 243.2-243.2c0-115.712-80.896-211.968-188.928-236.544v101.376L352.256 252.928 568.32 117.76v58.88c167.936 26.112 297.472 171.52 297.472 346.624 0 193.536-157.696 351.232-351.744 351.232z" fill="#BC88F1" p-id="8051"></path></svg>