<?xml version="1.0" standalone="no"?><!DOCTYPE svg PUBLIC "-//W3C//DTD SVG 1.1//EN" "http://www.w3.org/Graphics/SVG/1.1/DTD/svg11.dtd"><svg t="1774600856898" class="icon" viewBox="0 0 1024 1024" version="1.1" xmlns="http://www.w3.org/2000/svg" p-id="96929" xmlns:xlink="http://www.w3.org/1999/xlink" width="200" height="200"><path d="M856.874667 362.666667q0 64-30.293334 131.84a42.666667 42.666667 0 0 0 77.909334 34.773333q37.717333-84.437333 37.717333-166.613333 0-114.346667-77.696-195.456Q786.005333 85.333333 674.645333 85.333333 563.968 85.333333 490.666667 160.170667 417.408 85.333333 306.688 85.333333q-111.36 0-189.866667 81.877334Q39.168 248.32 39.168 362.666667q0 176.341333 162.474667 347.562666 134.357333 141.568 275.114666 190.378667a42.666667 42.666667 0 0 0 27.946667-80.64q-121.130667-41.984-241.152-168.448-139.093333-146.56-139.093333-288.853333 0-80.042667 54.058666-136.405334Q231.68 170.666667 306.688 170.666667 400.64 170.666667 455.253333 251.562667a42.666667 42.666667 0 0 0 70.741334 0Q580.650667 170.666667 674.688 170.666667q74.922667 0 128.213333 55.594666 53.973333 56.32 53.973334 136.405334zM768 597.333333a42.666667 42.666667 0 0 0-42.666667 42.666667v85.333333h-85.333333a42.666667 42.666667 0 0 0 0 85.333334h85.333333v85.333333a42.666667 42.666667 0 0 0 85.333334 0v-85.333333h85.333333a42.666667 42.666667 0 0 0 0-85.333334h-85.333333v-85.333333a42.666667 42.666667 0 0 0-42.666667-42.666667z" p-id="96930" fill="#dd6572"></path></svg>