<?xml version="1.0" standalone="no"?><!DOCTYPE svg PUBLIC "-//W3C//DTD SVG 1.1//EN" "http://www.w3.org/Graphics/SVG/1.1/DTD/svg11.dtd"><svg t="1774601355714" class="icon" viewBox="0 0 1024 1024" version="1.1" xmlns="http://www.w3.org/2000/svg" p-id="102045" xmlns:xlink="http://www.w3.org/1999/xlink" width="200" height="200"><path d="M507.7504 339.2l-275.0976 228.8128a241.664 241.664 0 0 1-43.8784-168.5504c0.8192-7.68 2.2016-16.2304 3.9936-24.6272-1.1264 0.7168-99.7888 50.688-99.7888 50.688A238.7456 238.7456 0 0 1 76.8 338.2784c0-26.9824 4.4032-52.992 12.544-77.2608 41.1648-126.6688 179.0464-196.864 307.4048-155.1872 47.5648 15.4624 87.1424 44.1344 116.0192 80.64a242.176 242.176 0 0 1 145.5616-88.576c98.2528-33.9456 235.4176 35.9936 276.8896 163.6864 7.5776 22.4768 11.9808 48.3328 11.9808 75.2128 0 31.232-5.888 61.0816-16.6912 88.4736l-99.9936-52.9408a242.8928 242.8928 0 0 0-22.6304-61.1328l93.952 47.872a196.7616 196.7616 0 0 0-9.0624-85.1968 198.144 198.144 0 0 0-113.8688-121.4464c-10.8032-6.656-41.8816-14.7456-74.752-14.7456-22.0672 0-43.264 3.584-63.0272 10.24-34.304 11.3664-64.512 31.8464-87.7056 58.5728 15.5648-23.552 7.0656-22.528-1.28-21.0944 149.1968-16.1792 268.9024 81.1008 282.9824 215.1424a242.688 242.688 0 0 1-48.4352 173.568l-78.6944-66.9184a422.2976 422.2976 0 0 1 32 162.4064 436.224 436.224 0 0 1-89.2416 265.0112l-551.8336-1.024v-44.2368h198.912c118.5792-47.8208 200.3456-167.3728 198.9632-309.0432 1.1264-67.0208-19.3024-130.8672-49.7664-190.6688l30.72-25.4464c36.864 62.6688 57.1904 126.2592 62.1568 193.536h67.6352a22.1184 22.1184 0 1 1 0 44.2368h-67.4816a397.7728 397.7728 0 0 1-43.1104 153.9072l88.4736-21.2992a22.1184 22.1184 0 1 1 0 44.2368H484.1472c-25.1904 41.984-97.792 110.5408-97.792 110.5408h243.1488c42.1376-65.8432 66.304-142.336 66.304-221.0816 0-82.0224-28.16-165.0688-74.752-234.0864L507.7504 339.2zM717.824 889.344h221.0816v44.1856H717.824v-44.1856zM507.8528 281.6l267.776 224.5632a196.7104 196.7104 0 0 0 15.4112-101.888 199.168 199.168 0 0 0-280.5248-160.256l1.3312-1.2288-14.7456-5.2224a194.048 194.048 0 0 0-61.5424-11.3152 196.2496 196.2496 0 0 0-130.4576 44.7488 198.4512 198.4512 0 0 0-73.5744 155.2384c0 26.4704 5.12 51.712 14.4896 74.8544L507.8528 281.6zM456.0384 183.296a238.1824 238.1824 0 0 0-24.4736-1.3824c-11.6736-21.4528-45.2096-36.608-81.92-41.7792 14.9504 1.4848-6.4-2.1504-28.5696-2.1504-33.1264 0-64.3584 8.0896-91.8016 22.4256a199.1168 199.1168 0 0 0-102.912 132.4544c-1.792 2.048-5.4272 23.3984-5.4272 45.568 0 7.936 0.512 15.7696 1.3824 23.552l92.1088-47.9744A243.3024 243.3024 0 0 1 456.0384 183.296z" fill="#1afa29" p-id="102046"></path></svg>