<?xml version="1.0" standalone="no"?><!DOCTYPE svg PUBLIC "-//W3C//DTD SVG 1.1//EN" "http://www.w3.org/Graphics/SVG/1.1/DTD/svg11.dtd"><svg t="1774601077775" class="icon" viewBox="0 0 1365 1024" version="1.1" xmlns="http://www.w3.org/2000/svg" p-id="99844" xmlns:xlink="http://www.w3.org/1999/xlink" width="266.6015625" height="200"><path d="M121.222095 970.264381H1236.601905v48.518095H121.222095zM0 970.264381h72.752762v48.518095H0v-48.518095zM1285.12 970.264381h72.752762v48.518095h-72.704v-48.518095z" fill="#3B3B3C" p-id="99845"></path><path d="M914.139429 509.561905h-89.721905c-36.327619 0-72.704 36.376381-72.704 89.721905v176.956952l242.44419 97.03619v-274.041904c0-53.296762-43.690667-89.721905-80.018285-89.721905z" fill="#FFD6AB" p-id="99846"></path><path d="M1018.392381 873.276952h-48.518095v-274.041904c0-38.716952-31.50019-65.487238-53.296762-65.487238h-89.721905c-21.845333 0-48.518095 24.283429-48.518095 65.536v176.956952h-48.469334v-177.005714c0-67.82781 50.907429-113.956571 96.987429-113.956572h87.28381c48.469333 0 101.814857 48.518095 101.814857 114.005334v273.993142h2.438095zM872.886857 461.04381c-53.296762 0-96.938667-36.376381-96.938667-82.456381V325.290667c0-46.08 43.641905-82.456381 96.938667-82.456381 53.345524 0 97.03619 36.376381 97.036191 82.407619v53.345524c0 21.845333-12.190476 43.690667-31.548953 60.611047-19.407238 12.141714-41.252571 21.845333-65.487238 21.845334z m0-169.691429c-24.185905 0-48.420571 16.871619-48.420571 33.938286v53.296762c0 16.969143 24.234667 33.987048 48.420571 33.987047 14.57981 0 26.721524-4.87619 36.376381-12.141714 4.87619-4.87619 12.141714-12.141714 12.141714-21.845333V325.290667c0-19.456-24.283429-33.987048-48.518095-33.987048z" fill="#FF960B" p-id="99847"></path><path d="M581.973333 849.042286h-48.518095v-21.845334c0-65.487238-60.611048-75.142095-96.987428-75.142095s-97.03619 9.654857-97.036191 75.093333v21.894096h-48.469333v-21.845334c0-75.142095 55.783619-123.66019 145.505524-123.66019s145.505524 48.518095 145.505523 123.66019v21.845334z" fill="#333333" p-id="99848"></path><path d="M824.466286 849.042286h-48.518096v-21.845334c0-65.487238-60.611048-75.142095-97.03619-75.142095-36.327619 0-96.938667 9.654857-96.938667 75.093333v21.894096h-48.518095v-21.845334c0-75.142095 55.734857-123.66019 145.505524-123.66019 89.673143 0 145.505524 48.518095 145.505524 123.66019v21.845334z" fill="#333333" p-id="99849"></path><path d="M1066.910476 849.042286h-48.518095v-21.845334c0-65.487238-60.65981-75.142095-97.036191-75.142095-36.327619 0-96.889905 9.654857-96.889904 75.093333v21.894096h-48.518096v-21.845334c0-75.142095 55.686095-123.66019 145.456762-123.66019 89.721905 0 145.456762 48.518095 145.456762 123.66019v21.845334zM460.604952 970.264381h-48.420571v-21.845333c0-65.487238-60.611048-75.142095-97.036191-75.142096-36.327619 0-96.938667 9.654857-96.938666 75.142096v21.845333H169.691429v-21.845333c0-75.142095 55.734857-123.66019 145.505523-123.660191 89.721905 0 145.456762 48.518095 145.456762 123.660191v21.845333z" fill="#333333" p-id="99850"></path><path d="M703.195429 970.264381h-48.469334v-21.845333c0-65.487238-60.65981-75.142095-97.03619-75.142096-36.327619 0-96.987429 9.654857-96.987429 75.142096v21.845333h-48.469333v-21.845333c0-75.142095 55.686095-123.66019 145.456762-123.660191 89.721905 0 145.505524 48.518095 145.505524 123.660191v21.845333z" fill="#333333" p-id="99851"></path><path d="M945.639619 970.264381h-48.518095v-21.845333c0-65.487238-60.611048-75.142095-96.938667-75.142096-36.376381 0-96.987429 9.654857-96.987428 75.142096v21.845333h-48.469334v-21.845333c0-75.142095 55.686095-123.66019 145.456762-123.660191 89.721905 0 145.456762 48.518095 145.456762 123.660191v21.845333z" fill="#333333" p-id="99852"></path><path d="M1188.132571 970.264381h-48.518095v-21.845333c0-65.487238-60.611048-75.142095-97.03619-75.142096-36.327619 0-96.938667 9.654857-96.938667 75.142096v21.845333h-48.518095v-21.845333c0-75.142095 55.832381-123.66019 145.505524-123.660191 89.721905 0 145.505524 48.518095 145.505523 123.660191v21.845333z" fill="#333333" p-id="99853"></path><path d="M194.511238 792.380952a12.190476 12.190476 0 0 1-12.190476-12.190476V97.52381a12.190476 12.190476 0 0 1 12.190476-12.190477h1024a12.190476 12.190476 0 0 1 12.190476 12.190477v682.666666a12.190476 12.190476 0 0 1-12.190476 12.190476v73.142858a85.333333 85.333333 0 0 0 85.333333-85.333334V97.52381a85.333333 85.333333 0 0 0-85.333333-85.333334h-1024A85.333333 85.333333 0 0 0 109.177905 97.52381v682.666666c0 47.104 38.180571 85.333333 85.333333 85.333334v-73.142858z" fill="#333333" p-id="99854"></path></svg>