<?xml version="1.0" standalone="no"?><!DOCTYPE svg PUBLIC "-//W3C//DTD SVG 1.1//EN" "http://www.w3.org/Graphics/SVG/1.1/DTD/svg11.dtd"><svg t="1774585181907" class="icon" viewBox="0 0 1152 1024" version="1.1" xmlns="http://www.w3.org/2000/svg" p-id="56420" xmlns:xlink="http://www.w3.org/1999/xlink" width="225" height="200"><path d="M767.99712 844.798752v137.855483a41.791843 41.791843 0 0 1-42.239842 41.343845 42.68784 42.68784 0 0 1-22.911914-6.783975l-466.174252-298.878879H21.119921A20.991921 20.991921 0 0 1 0 697.727304V326.400696c0-11.391957 9.471964-20.735922 21.119921-20.735922h169.151365L767.99712 844.798752z m152.447428-126.399526c3.519987 0 7.039974 0.831997 10.367961 2.68799l145.087456 82.111692c9.855963 5.631979 13.37595 18.303931 7.615972 28.159894l-26.239902 44.479834a20.991921 20.991921 0 0 1-18.111932 10.239961 21.695919 21.695919 0 0 1-10.431961-2.62399l-81.151695-46.015827-70.591736-65.919753 25.279905-42.879839a21.055921 21.055921 0 0 1 18.175932-10.239962zM725.757278 0.00192c21.951918 0 42.175842 17.151936 42.175842 41.343845v628.413643L320.318799 252.032975 702.845364 6.785895A41.279845 41.279845 0 0 1 725.821278 0.00192z m405.118481 465.534254c11.519957 0 21.055921 9.279965 21.055921 20.671923v51.583806a20.927922 20.927922 0 0 1-21.119921 20.671923h-168.255369a20.927922 20.927922 0 0 1-21.11992-20.671923v-51.583806c0.064-11.327958 9.599964-20.671922 21.11992-20.671923h168.319369z m-91.775656-327.550771c7.231973 0 14.335946 3.775986 18.175932 10.303961l26.047903 44.415833a20.479923 20.479923 0 0 1-7.679972 28.159895l-145.023456 82.047692a21.119921 21.119921 0 0 1-28.543893-7.679971l-25.983902-44.223834a20.415923 20.415923 0 0 1 7.615971-28.159895l144.959456-82.175692a21.695919 21.695919 0 0 1 10.431961-2.687989z" fill="#0078E6" p-id="56421"></path></svg>