<?xml version="1.0" standalone="no"?><!DOCTYPE svg PUBLIC "-//W3C//DTD SVG 1.1//EN" "http://www.w3.org/Graphics/SVG/1.1/DTD/svg11.dtd"><svg t="1774687002488" class="icon" viewBox="0 0 1024 1024" version="1.1" xmlns="http://www.w3.org/2000/svg" p-id="29003" xmlns:xlink="http://www.w3.org/1999/xlink" width="256" height="256"><path d="M505.802105 26.947368a261.173895 261.173895 0 1 1 0 522.34779 261.173895 261.173895 0 0 1 0-522.34779z m0 107.789474a153.384421 153.384421 0 1 0 0 306.768842 153.384421 153.384421 0 0 0 0-306.768842zM505.802105 623.939368l19.240421 0.215579 21.61179 0.754527 37.025684 1.994105 27.701895 1.94021 30.181052 2.425264 49.690948 4.527158 74.752 7.706947 62.410105 7.114105 21.989053 2.586948c37.564632 4.473263 65.805474 36.325053 65.805473 74.105263v195.098947c0 41.229474-33.414737 74.644211-74.64421 74.644211H169.984c-41.229474 0-74.644211-33.414737-74.644211-74.644211v-195.098947c0-37.780211 28.294737-69.632 65.751579-74.105263l43.493053-5.066106 79.602526-8.730947 36.109474-3.610947 49.744842-4.527158 30.181053-2.425264 27.648-1.94021 25.330526-1.455158 33.360842-1.293474 19.240421-0.215579z m18.863158 108.058948l-18.863158-0.269474-18.863158 0.269474-21.557894 0.754526-24.360421 1.293474-41.714527 2.96421-47.804631 4.096-73.296842 7.329685-75.075369 8.353684V889.263158h605.237895v-132.473263l-57.559579-6.467369-61.062737-6.359579-36.971789-3.503158-33.845895-2.910315-30.773895-2.317474-27.755789-1.724632-24.576-1.185684-11.102316-0.323368z" fill="#000000" p-id="29004"></path></svg>