<?xml version="1.0" standalone="no"?><!DOCTYPE svg PUBLIC "-//W3C//DTD SVG 1.1//EN" "http://www.w3.org/Graphics/SVG/1.1/DTD/svg11.dtd"><svg t="1774585113969" class="icon" viewBox="0 0 1024 1024" version="1.1" xmlns="http://www.w3.org/2000/svg" p-id="53398" xmlns:xlink="http://www.w3.org/1999/xlink" width="200" height="200"><path d="M511.99693 47.862078c-256.322853 0-464.113363 207.79051-464.113363 464.113363s207.79051 464.113363 464.113363 464.113363 464.113363-207.79051 464.113363-464.113363S768.319783 47.862078 511.99693 47.862078zM511.99693 906.47226c-217.875193 0-394.496819-176.621627-394.496819-394.496819S294.121737 117.478621 511.99693 117.478621s394.496819 176.621627 394.496819 394.496819S729.871099 906.47226 511.99693 906.47226zM728.132502 295.839869c-13.5936-13.592576-35.633568-13.592576-49.227168 0L511.99693 462.748273 345.088526 295.839869c-13.5936-13.592576-35.633568-13.592576-49.227168 0-13.592576 13.5936-13.592576 35.633568 0 49.227168l166.909427 166.908404L295.860335 678.884868c-13.592576 13.592576-13.592576 35.632545 0 49.226145 13.5936 13.592576 35.633568 13.592576 49.227168 0l166.909427-166.908404L678.906357 728.111013c13.592576 13.592576 35.632545 13.592576 49.226145 0 13.592576-13.5936 13.592576-35.633568 0-49.227168L561.224098 511.975441l166.908404-166.908404C741.725078 331.473437 741.725078 309.433468 728.132502 295.839869z" fill="#FF0000" p-id="53399"></path></svg>