<?xml version="1.0" standalone="no"?><!DOCTYPE svg PUBLIC "-//W3C//DTD SVG 1.1//EN" "http://www.w3.org/Graphics/SVG/1.1/DTD/svg11.dtd"><svg t="1774677428431" class="icon" viewBox="0 0 1024 1024" version="1.1" xmlns="http://www.w3.org/2000/svg" p-id="8486" xmlns:xlink="http://www.w3.org/1999/xlink" width="256" height="256"><path d="M269.473684 294.965895a240.855579 240.855579 0 0 0 121.263158 208.842105 243.765895 243.765895 0 0 0 242.526316 0A241.556211 241.556211 0 1 0 269.473684 294.965895z m-169.768421 361.633684q48.505263-48.181895 194.021053-48.23579 48.505263 289.306947 121.263158 289.306948c72.757895 0 72.757895 0 72.757894-24.090948a265.000421 265.000421 0 0 1-25.114947-48.235789 528.922947 528.922947 0 0 0 17.623579-144.707368c0.377263-20.48-22.150737-37.672421-16.761263-48.074106a44.894316 44.894316 0 0 1 48.505263-24.144842 44.355368 44.355368 0 0 1 48.505263 24.090948c5.389474 10.455579-17.138526 27.540211-16.761263 48.235789a525.096421 525.096421 0 0 0 17.677474 144.545684 269.904842 269.904842 0 0 1-25.168842 48.505263c0 24.090947 0 24.090947 72.757894 24.090948q72.757895 0 121.263158-289.306948 145.515789 0 194.021053 48.23579A209.381053 209.381053 0 0 1 997.052632 807.343158v114.526316a48.074105 48.074105 0 0 1-14.228211 34.115368 48.505263 48.505263 0 0 1-34.277053 14.120421H75.452632a48.505263 48.505263 0 0 1-34.330948-14.120421 48.074105 48.074105 0 0 1-14.174316-34.115368V807.343158a209.381053 209.381053 0 0 1 72.757895-150.905263z" fill="#000000" p-id="8487"></path></svg>