<?xml version="1.0" standalone="no"?><!DOCTYPE svg PUBLIC "-//W3C//DTD SVG 1.1//EN" "http://www.w3.org/Graphics/SVG/1.1/DTD/svg11.dtd"><svg t="1774601279127" class="icon" viewBox="0 0 1024 1024" version="1.1" xmlns="http://www.w3.org/2000/svg" p-id="101808" xmlns:xlink="http://www.w3.org/1999/xlink" width="200" height="200"><path d="M512 512m-512 0a512 512 0 1 0 1024 0 512 512 0 1 0-1024 0Z" fill="#5294FA" p-id="101809"></path><path d="M352 588.8L492.8 448 268.8 345.6c-6.4-6.4-12.8-12.8-6.4-19.2l25.6-25.6c6.4-12.8 19.2-12.8 32-12.8l275.2 57.6 44.8-44.8c25.6-25.6 89.6-64 115.2-32 32 32 0 89.6-32 115.2l-51.2 51.2 57.6 268.8c0 6.4 0 19.2-6.4 25.6l-25.6 25.6c-6.4 6.4-12.8 6.4-19.2-6.4L576 531.2l-140.8 140.8v64c0 6.4-6.4 19.2-12.8 25.6l-12.8 6.4c-6.4 6.4-19.2 0-19.2-12.8l-32-83.2-83.2-25.6C256 640 256 633.6 256 620.8l6.4-19.2c0-6.4 12.8-12.8 19.2-12.8h70.4z" fill="#FFFFFF" p-id="101810"></path></svg>