<?xml version="1.0" standalone="no"?><!DOCTYPE svg PUBLIC "-//W3C//DTD SVG 1.1//EN" "http://www.w3.org/Graphics/SVG/1.1/DTD/svg11.dtd"><svg t="1774602835725" class="icon" viewBox="0 0 1024 1024" version="1.1" xmlns="http://www.w3.org/2000/svg" p-id="103215" xmlns:xlink="http://www.w3.org/1999/xlink" width="200" height="200"><path d="M708.928 0H315.072C247.168 0 192 52.16 192 116.352v791.296C192 971.84 247.168 1024 315.072 1024h393.856C776.832 1024 832 971.84 832 907.648V116.352C832 52.16 776.832 0 708.928 0zM512 977.472c-40.832 0-73.856-31.232-73.856-69.824 0-38.656 33.024-69.824 73.856-69.824 40.832 0 73.856 31.168 73.856 69.76 0 38.656-33.024 69.888-73.856 69.888z m221.568-186.24H290.432V139.712h443.136v651.648z" fill="#3CB1FF" p-id="103216"></path></svg>