<?xml version="1.0" standalone="no"?><!DOCTYPE svg PUBLIC "-//W3C//DTD SVG 1.1//EN" "http://www.w3.org/Graphics/SVG/1.1/DTD/svg11.dtd"><svg t="1774677375363" class="icon" viewBox="0 0 1024 1024" version="1.1" xmlns="http://www.w3.org/2000/svg" p-id="7486" xmlns:xlink="http://www.w3.org/1999/xlink" width="256" height="256"><path d="M921.1 354.2L543.3 74.4c-9.4-7-20.4-10.5-31.4-10.5s-21.9 3.5-31.3 10.5L102.8 354.2c-14.2 10.5-22.6 27.5-22.6 45.6v503.8c0 30.9 24.2 56 54 56h215.9V623.7c0-30.9 24.2-56 54-56H620c29.8 0 54 25 54 56v335.8h215.9c29.8 0 54-25 54-56V399.8c-0.2-18.1-8.6-35.1-22.8-45.6z m0 0" fill="" p-id="7487"></path></svg>