<?xml version="1.0" standalone="no"?><!DOCTYPE svg PUBLIC "-//W3C//DTD SVG 1.1//EN" "http://www.w3.org/Graphics/SVG/1.1/DTD/svg11.dtd"><svg t="1774585167683" class="icon" viewBox="0 0 1024 1024" version="1.1" xmlns="http://www.w3.org/2000/svg" p-id="55394" xmlns:xlink="http://www.w3.org/1999/xlink" width="200" height="200"><path d="M467.936 204.576a27.52 27.52 0 0 1 6.208-3.84 28.576 28.576 0 0 1 8.96-2.496 29.568 29.568 0 0 1 33.12 29.504v566.4c0 1.728-0.128 3.456-0.416 5.152a29.248 29.248 0 0 1-10.24 17.632 28.992 28.992 0 0 1-18.24 6.88h-1.024a27.84 27.84 0 0 1-10.176-1.92 26.4 26.4 0 0 1-8.128-4.608l-194.912-155.424H125.728a29.152 29.152 0 0 1-17.696-5.824 29.216 29.216 0 0 1-9.184-11.2 29.12 29.12 0 0 1-2.848-12.672v-245.76a29.696 29.696 0 0 1 29.728-29.696h152.512l189.696-152.128z m191.52 489.472a32.384 32.384 0 0 1-4.544 3.52 30.88 30.88 0 0 1-13.6 4.544 29.376 29.376 0 0 1-21.44-6.816 29.76 29.76 0 0 1-2.048-43.616 198.08 198.08 0 0 0 59.488-132.384 199.232 199.232 0 0 0-52.544-145.024 30.976 30.976 0 0 1-6.368-13.056 29.76 29.76 0 0 1 29.216-35.776 30.368 30.368 0 0 1 22.112 10.016c6.72 7.36 12.992 15.04 18.752 23.136 4.672 6.464 9.024 13.12 13.024 20 5.024 8.608 9.536 17.44 13.568 26.56a254.528 254.528 0 0 1 20.192 74.528 259.84 259.84 0 0 1-29.536 153.024 256.928 256.928 0 0 1-46.304 61.312z m141.248 128.736a29.696 29.696 0 0 1-42.624-41.376c15.328-15.744 29.312-32.768 41.824-50.816a391.424 391.424 0 0 0 66.88-183.584c1.216-12.48 1.792-25.056 1.792-37.6 0-100.832-38.4-195.648-106.24-267.552a29.152 29.152 0 0 1-7.68-16.832 29.76 29.76 0 0 1 50.944-23.872A447.712 447.712 0 0 1 928 509.376a447.904 447.904 0 0 1-127.296 313.376z" fill="#2474FF" p-id="55395"></path></svg>