<?xml version="1.0" standalone="no"?><!DOCTYPE svg PUBLIC "-//W3C//DTD SVG 1.1//EN" "http://www.w3.org/Graphics/SVG/1.1/DTD/svg11.dtd"><svg t="1774694304393" class="icon" viewBox="0 0 1024 1024" version="1.1" xmlns="http://www.w3.org/2000/svg" p-id="31238" xmlns:xlink="http://www.w3.org/1999/xlink" width="256" height="256"><path d="M320 192A64 64 0 0 1 384 128h256a64 64 0 0 1 64 64V384a64 64 0 0 1-64 64H384A64 64 0 0 1 320 384V192z m64 0V384h256V192H384zM64 640A64 64 0 0 1 128 576h192A64 64 0 0 1 384 640v192A64 64 0 0 1 320 896H128a64 64 0 0 1-64-64V640zM128 640v192h192V640H128zM640 640a64 64 0 0 1 64-64H896a64 64 0 0 1 64 64v192A64 64 0 0 1 896 896h-192a64 64 0 0 1-64-64V640z m64 0v192H896V640h-192zM640 768H384v-64h256V768z" fill="#19fa28" p-id="31239"></path><path d="M256 596.992L397.994667 384l53.248 35.498667-141.994667 212.992L256 596.992zM781.994667 596.992L640 384l-53.248 35.498667 141.994667 212.992 53.248-35.498667z" fill="#19fa28" p-id="31240"></path></svg>