<?xml version="1.0" standalone="no"?><!DOCTYPE svg PUBLIC "-//W3C//DTD SVG 1.1//EN" "http://www.w3.org/Graphics/SVG/1.1/DTD/svg11.dtd"><svg t="1774684150637" class="icon" viewBox="0 0 1024 1024" version="1.1" xmlns="http://www.w3.org/2000/svg" p-id="26925" xmlns:xlink="http://www.w3.org/1999/xlink" width="256" height="256"><path d="M128 682.666667a42.666667 42.666667 0 0 1 42.666667-42.666667h341.333333a42.666667 42.666667 0 1 1 0 85.333333H170.666667a42.666667 42.666667 0 0 1-42.666667-42.666666z" fill="#000000" p-id="26926"></path><path d="M341.333333 896a42.666667 42.666667 0 0 1-42.666666-42.666667v-298.666666a42.666667 42.666667 0 1 1 85.333333 0v298.666666a42.666667 42.666667 0 0 1-42.666667 42.666667zM682.666667 554.666667a42.666667 42.666667 0 0 1-42.666667-42.666667V256a42.666667 42.666667 0 1 1 85.333333 0v256a42.666667 42.666667 0 0 1-42.666666 42.666667z" fill="#000000" p-id="26927"></path><path d="M341.333333 213.333333a128 128 0 1 0 0 256 128 128 0 0 0 0-256zM128 341.333333a213.333333 213.333333 0 1 1 426.666667 0A213.333333 213.333333 0 0 1 128 341.333333zM682.666667 554.666667a128 128 0 1 0 0 256 128 128 0 0 0 0-256z m-213.333334 128a213.333333 213.333333 0 1 1 426.666667 0 213.333333 213.333333 0 0 1-426.666667 0z" fill="#000000" p-id="26928"></path><path d="M682.666667 170.666667a42.666667 42.666667 0 0 1 34.133333 17.066666l128 170.666667a42.666667 42.666667 0 0 1-68.266667 51.2L682.666667 284.458667 588.8 409.6a42.666667 42.666667 0 0 1-68.266667-51.2l128-170.666667A42.666667 42.666667 0 0 1 682.666667 170.666667z" fill="#000000" p-id="26929"></path></svg>