<?xml version="1.0" standalone="no"?><!DOCTYPE svg PUBLIC "-//W3C//DTD SVG 1.1//EN" "http://www.w3.org/Graphics/SVG/1.1/DTD/svg11.dtd"><svg t="1774584134422" class="icon" viewBox="0 0 1024 1024" version="1.1" xmlns="http://www.w3.org/2000/svg" p-id="31007" xmlns:xlink="http://www.w3.org/1999/xlink" width="200" height="200"><path d="M925.984 415.168C825.152 278.528 677.152 192 511.872 192 346.56 192 199.2 278.528 97.76 415.168c-44.768 60.256-44.768 149.76 0 210.048 101.44 136.64 249.408 223.168 414.08 223.168 165.312 0 312.704-86.528 414.144-223.168 44.768-60.256 44.768-149.76 0-210.048zM512 734.208a208.224 208.224 0 0 1-208-208c0-114.688 93.312-208 208-208s208 93.312 208 208c0 114.72-93.312 208-208 208z m0-352a144.064 144.064 0 0 0-144 144c0 79.52 64.512 144 144 144s144-64.48 144-144c0-79.456-64.512-144-144-144z" fill="#000000" p-id="31008"></path></svg>