<?xml version="1.0" standalone="no"?><!DOCTYPE svg PUBLIC "-//W3C//DTD SVG 1.1//EN" "http://www.w3.org/Graphics/SVG/1.1/DTD/svg11.dtd"><svg t="1774584149401" class="icon" viewBox="0 0 1384 1024" version="1.1" xmlns="http://www.w3.org/2000/svg" p-id="31998" xmlns:xlink="http://www.w3.org/1999/xlink" width="270.3125" height="200"><path d="M173.483927 49.06529m24.534998-24.534998l0 0q24.534998-24.534998 49.069995 0l883.259919 883.259918q24.534998 24.534998 0 49.069996l0 0q-24.534998 24.534998-49.069996 0l-883.259918-883.259919q-24.534998-24.534998 0-49.069995Z" fill="#2c2c2c" p-id="31999"></path><path d="M486.982592 460.681715l187.714701 187.714701c-6.176195 0.693955-12.421786 1.006234-18.736773 1.006234-93.996141 0-170.192349-75.467555-170.192348-168.561555 0-6.835452 0.416373-13.532113 1.21442-20.124682z m147.361245-147.048965A173.488633 173.488633 0 0 1 655.96052 312.279539c94.030839 0 170.192349 75.467555 170.192349 168.561556 0 7.806988-0.520466 15.509884-1.561397 23.03929L634.343837 313.667448zM236.811984 210.511107l153.155765 153.190463A314.014425 314.014425 0 0 0 346.977266 522.825344c0 173.766215 140.387002 314.638984 313.528657 314.638984a311.238607 311.238607 0 0 0 159.540146-43.719135l66.23796 66.272657c-82.407101 44.066113-170.712815 73.663273-259.226715 73.663274C282.404796 933.715822 0 484.206774 0 484.206774S92.747023 336.567948 236.811984 210.511107z m174.251982-120.158227C478.481649 56.418503 551.242782 34.697727 627.057314 34.697727c344.652518 0 686.772102 449.509047 686.772102 449.509047s-102.635875 134.835365-252.113681 256.797874l-107.59765-107.562952a314.951264 314.951264 0 0 0 19.916495-110.616352C974.03458 349.059129 833.647578 208.186359 660.505923 208.186359c-39.208431 0-76.681976 7.217127-111.240912 20.367566l-138.201045-138.201045z" fill="#2c2c2c" p-id="32000"></path></svg>