<?xml version="1.0" standalone="no"?><!DOCTYPE svg PUBLIC "-//W3C//DTD SVG 1.1//EN" "http://www.w3.org/Graphics/SVG/1.1/DTD/svg11.dtd"><svg t="1774584981762" class="icon" viewBox="0 0 1024 1024" version="1.1" xmlns="http://www.w3.org/2000/svg" p-id="50380" xmlns:xlink="http://www.w3.org/1999/xlink" width="200" height="200"><path d="M901.12 68.224a202.88 202.88 0 0 0-286.976 0l-0.64 0.832 0.512 0.512c-0.768 0.704-1.728 0.896-2.368 1.6L144.896 537.792l-0.128 0.128-0.128 0.256-11.712 11.712a47.296 47.296 0 0 0-9.856 14.656c-85.76 109.76-79.36 268.288 21.76 369.344 100.864 100.992 259.008 107.52 368.832 22.272a51.072 51.072 0 0 0 15.232-10.24l324.608-324.672a48.512 48.512 0 0 0 1.024-68.8 48.704 48.704 0 0 0-68.864 0.896L475.776 863.36l-0.256-0.256c-0.896 0.96-1.472 2.112-2.496 3.008a184 184 0 0 1-260.352-259.968l0.256-0.384c0.896-0.96 1.92-1.536 2.944-2.432l-0.256-0.192 464-464c0.64-0.704 0.896-1.664 1.536-2.432l0.256 0.256c0.256-0.256 0.384-0.576 0.64-0.768a106.88 106.88 0 1 1 151.232 151.296l-0.768 0.64 0.512 0.512c-0.768 0.64-1.728 0.896-2.368 1.6l-478.592 478.656c-11.392 11.456-29.888 10.112-41.152-1.344a28.224 28.224 0 0 1-0.64-40.384l415.232-415.104a48.64 48.64 0 0 0 0.896-68.8 48.576 48.576 0 0 0-68.736 0.896l-415.168 415.296c-0.384 0.32-0.512 0.768-0.768 1.088-47.36 48.96-46.976 126.72 1.344 174.976 45.888 46.08 118.4 48.128 167.488 7.616 3.136-1.92 6.656-3.584 9.344-6.464l478.592-478.656c0.768-0.704 0.896-1.664 1.536-2.432l0.256 0.256 0.832-0.64a202.944 202.944 0 0 0 0-286.976z" fill="#030000" p-id="50381"></path></svg>