<?xml version="1.0" standalone="no"?><!DOCTYPE svg PUBLIC "-//W3C//DTD SVG 1.1//EN" "http://www.w3.org/Graphics/SVG/1.1/DTD/svg11.dtd"><svg t="1775222524934" class="icon" viewBox="0 0 1024 1024" version="1.1" xmlns="http://www.w3.org/2000/svg" p-id="4810" xmlns:xlink="http://www.w3.org/1999/xlink" width="256" height="256"><path d="M128 853.333333l2.133333-179.2c0-10.666667 4.266667-21.333333 12.8-29.866666l311.466667-311.466667c17.066667-17.066667 42.666667-17.066667 59.733333 0l179.2 177.066667c17.066667 17.066667 17.066667 42.666667 0 59.733333L379.733333 881.066667c-8.533333 8.533333-19.2 12.8-29.866666 12.8L170.666667 896c-23.466667 0-42.666667-19.2-42.666667-42.666667z m85.333333-145.066666V789.333333c0 12.8 8.533333 21.333333 21.333334 21.333334h81.066666c10.666667 0 21.333333-4.266667 29.866667-12.8L588.8 554.666667c8.533333-8.533333 8.533333-21.333333 0-29.866667l-89.6-87.466667c-8.533333-8.533333-21.333333-8.533333-29.866667 0L226.133333 680.533333c-8.533333 6.4-12.8 17.066667-12.8 27.733334zM723.2 480l-179.2-179.2c-17.066667-17.066667-17.066667-42.666667 0-59.733333l119.466667-119.466667c17.066667-17.066667 42.666667-17.066667 59.733333 0l177.066667 177.066667c17.066667 17.066667 17.066667 42.666667 0 59.733333l-119.466667 119.466667c-14.933333 19.2-42.666667 19.2-57.6 2.133333z m-74.666667-194.133333l89.6 89.6c8.533333 8.533333 21.333333 8.533333 29.866667 0l29.866667-29.866667c8.533333-8.533333 8.533333-21.333333 0-29.866667l-89.6-89.6c-8.533333-8.533333-21.333333-8.533333-29.866667 0L648.533333 256c-8.533333 8.533333-8.533333 23.466667 0 29.866667z" fill="#267AFF" p-id="4811"></path></svg>