<?xml version="1.0" standalone="no"?><!DOCTYPE svg PUBLIC "-//W3C//DTD SVG 1.1//EN" "http://www.w3.org/Graphics/SVG/1.1/DTD/svg11.dtd"><svg t="1774584945588" class="icon" viewBox="0 0 1024 1024" version="1.1" xmlns="http://www.w3.org/2000/svg" p-id="49387" xmlns:xlink="http://www.w3.org/1999/xlink" width="200" height="200"><path d="M572.99217067 151.289856a60.00184889 60.00184889 0 0 1-20.21421512 44.91400533v75.73048889h201.09357512a120.70274845 120.70274845 0 0 1 120.76100266 120.64449423v401.95413333a120.70274845 120.70274845 0 0 1-120.70274844 120.64449422H271.351808A120.70274845 120.70274845 0 0 1 150.82382222 794.76599467v-401.95413334a120.70274845 120.70274845 0 0 1 120.52798578-120.87751111h201.09357511v-75.73048889a60.35137422 60.35137422 0 1 1 100.54678756-44.91400533z m-462.53852445 361.93348267v160.83990755a40.25366755 40.25366755 0 1 1-80.44908089 0v-160.83990755a40.25366755 40.25366755 0 0 1 80.44908089 0z m804.37430045 0v160.83990755a40.25366755 40.25366755 0 1 0 80.44908088 0v-160.83990755a40.25366755 40.25366755 0 0 0-80.44908088 0zM391.99630222 653.96553955A60.35137422 60.35137422 0 1 0 331.41191111 593.55591111a60.29312 60.29312 0 0 0 60.58439111 60.40962844zM693.63666489 593.55591111a60.35137422 60.35137422 0 1 0-60.35137422 60.35137422A60.29312 60.29312 0 0 0 693.63666489 593.55591111z m0 0" fill="#0894fa" p-id="49388"></path><path d="M565.59388445 142.37696a60.17661155 60.17661155 0 0 1-20.09770667 44.97225955v75.7304889h201.09357511A120.64449422 120.64449422 0 0 1 867.35075555 383.84071111v401.95413334a120.70274845 120.70274845 0 0 1-120.64449422 120.70274844H263.95352178A120.70274845 120.70274845 0 0 1 143.30902755 785.79484445V383.84071111a120.64449422 120.64449422 0 0 1 120.64449423-120.76100266h201.09357511v-75.7304889a60.35137422 60.35137422 0 1 1 100.54678756-44.97225955zM103.11361422 504.36869689v160.83990756a40.25366755 40.25366755 0 1 1-80.44908089 0V504.36869689a40.25366755 40.25366755 0 1 1 80.44908089 0z m804.31604623 0v160.83990756a40.25366755 40.25366755 0 1 0 80.44908088 0V504.36869689a40.25366755 40.25366755 0 1 0-80.44908088 0z m-522.83164445 140.74220089a60.35137422 60.35137422 0 1 0-60.29312-60.35137423 60.35137422 60.35137422 0 0 0 60.29312 60.35137423z m301.64036267-60.35137423a60.35137422 60.35137422 0 1 0-60.29312 60.35137423 60.29312 60.29312 0 0 0 60.29312-60.35137423z m0 0" fill="#0894fa" p-id="49389"></path></svg>