<?xml version="1.0" standalone="no"?><!DOCTYPE svg PUBLIC "-//W3C//DTD SVG 1.1//EN" "http://www.w3.org/Graphics/SVG/1.1/DTD/svg11.dtd"><svg t="1774604310883" class="icon" viewBox="0 0 1024 1024" version="1.1" xmlns="http://www.w3.org/2000/svg" p-id="109120" xmlns:xlink="http://www.w3.org/1999/xlink" width="200" height="200"><path d="M206.574933 437.885156a22.755556 22.755556 0 0 1 30.264889-10.990934l525.880889 245.213867a22.755556 22.755556 0 1 1-19.228444 41.255822L217.588622 468.127289a22.755556 22.755556 0 0 1-11.013689-30.242133z" fill="#06C468" p-id="109121"></path><path d="M565.998933 178.653867a91.022222 91.022222 0 1 1 164.977778 76.936533L644.437333 441.230222a22.755556 22.755556 0 0 0 10.990934 30.264889l130.844444 60.984889a68.266667 68.266667 0 0 1 33.041067 90.7264l-152.393956 326.769778a68.266667 68.266667 0 0 1-90.703644 33.041066L115.370667 768.091022a68.266667 68.266667 0 0 1-32.995556-90.703644l152.348445-326.769778a68.266667 68.266667 0 0 1 90.7264-33.041067l123.744711 57.708089a22.755556 22.755556 0 0 0 30.242133-11.013689l86.562133-185.617066z m101.717334-2.776178a45.511111 45.511111 0 0 0-60.484267 22.027378l-86.539378 185.594311a68.266667 68.266667 0 0 1-90.7264 33.018311l-123.744711-57.685333a22.755556 22.755556 0 0 0-30.242133 11.013688l-152.3712 326.769778a22.755556 22.755556 0 0 0 10.990933 30.242134l460.845511 214.880711a22.755556 22.755556 0 0 0 30.242134-11.013689l152.3712-326.769778a22.755556 22.755556 0 0 0-11.013689-30.242133l-130.844445-61.007645a68.266667 68.266667 0 0 1-33.018311-90.7264l86.539378-185.617066a45.511111 45.511111 0 0 0-22.004622-60.484267z" fill="#000000" p-id="109122"></path></svg>