<?xml version="1.0" standalone="no"?><!DOCTYPE svg PUBLIC "-//W3C//DTD SVG 1.1//EN" "http://www.w3.org/Graphics/SVG/1.1/DTD/svg11.dtd"><svg t="1774603844126" class="icon" viewBox="0 0 1024 1024" version="1.1" xmlns="http://www.w3.org/2000/svg" p-id="104373" xmlns:xlink="http://www.w3.org/1999/xlink" width="200" height="200"><path d="M243.330926 252.854857L13.662354 465.408a42.569143 42.569143 0 0 0-1.682285 60.854857l215.478857 224.621714c7.972571 8.996571 19.456 13.970286 31.451428 13.750858a46.665143 46.665143 0 0 0 30.72-11.190858 42.569143 42.569143 0 0 0 1.755429-60.781714L105.676069 498.834286 303.60064 315.245714a42.569143 42.569143 0 0 0 1.755429-60.928 44.836571 44.836571 0 0 0-62.171429-1.609143h0.146286zM1010.453211 464.457143l-229.522285-212.626286a44.836571 44.836571 0 0 0-62.171429 1.755429 42.569143 42.569143 0 0 0 1.755429 60.854857l197.851428 183.515428-186.514285 193.682286a42.642286 42.642286 0 0 0 1.755428 60.928 43.812571 43.812571 0 0 0 29.769143 11.995429 42.276571 42.276571 0 0 0 32.475429-14.628572l216.283428-224.548571a42.569143 42.569143 0 0 0-1.755428-60.854857zM583.006354 147.309714a44.178286 44.178286 0 0 0-52.443428 32.694857L387.714926 797.988571a43.154286 43.154286 0 0 0 42.934857 52.297143 43.812571 43.812571 0 0 0 42.861714-33.426285l142.848-618.130286a43.154286 43.154286 0 0 0-33.28-51.492572z" p-id="104374" fill="#2c2c2c"></path></svg>