<?xml version="1.0" standalone="no"?><!DOCTYPE svg PUBLIC "-//W3C//DTD SVG 1.1//EN" "http://www.w3.org/Graphics/SVG/1.1/DTD/svg11.dtd"><svg t="1774623791357" class="icon" viewBox="0 0 1024 1024" version="1.1" xmlns="http://www.w3.org/2000/svg" p-id="13166" xmlns:xlink="http://www.w3.org/1999/xlink" width="256" height="256"><path d="M512 976c256.256 0 464-207.744 464-464S768.256 48 512 48 48 255.744 48 512 255.744 976 512 976zM1024 512c0 282.784-229.216 512-512 512S0 794.784 0 512 229.216 0 512 0s512 229.216 512 512z" fill="#5693FF" p-id="13167"></path><path d="M804.224 476.8h-67.552v-43.648a27.84 27.84 0 0 0-27.84-27.84h-135.872a27.84 27.84 0 0 0-27.84 27.84v43.68h-67.52a27.84 27.84 0 0 0-27.84 27.84V832h40.96v-120.224h72.768V832h40.992v-120.224h72.768V832h40.992v-120.224h72.768V832h40.96V504.64a27.744 27.744 0 0 0-27.744-27.84z" fill="#5693FF" p-id="13168"></path><path d="M503.36 391.392c0-15.36 12.48-27.84 27.84-27.84h43.104V290.848a27.328 27.328 0 0 0-27.328-27.328h-68.064V219.84a27.84 27.84 0 0 0-27.84-27.84H315.2a27.84 27.84 0 0 0-27.84 27.84v43.648H219.84a27.84 27.84 0 0 0-27.84 27.84V618.624h40.96v-120.224h72.8v120.224h40.96v-120.224h61.248v-35.584c0-15.36 12.48-27.84 27.84-27.84h67.52v-43.616h0.032z" fill="#5693FF" p-id="13169"></path></svg>