<?xml version="1.0" standalone="no"?><!DOCTYPE svg PUBLIC "-//W3C//DTD SVG 1.1//EN" "http://www.w3.org/Graphics/SVG/1.1/DTD/svg11.dtd"><svg t="1774608774938" class="icon" viewBox="0 0 1024 1024" version="1.1" xmlns="http://www.w3.org/2000/svg" p-id="119259" xmlns:xlink="http://www.w3.org/1999/xlink" width="200" height="200"><path d="M512 1024c282.766222 0 512-229.233778 512-512S794.766222 0 512 0 0 229.233778 0 512s229.233778 512 512 512z m0-56.888889C260.636444 967.111111 56.888889 763.363556 56.888889 512S260.636444 56.888889 512 56.888889s455.111111 203.747556 455.111111 455.111111-203.747556 455.111111-455.111111 455.111111z" fill="#000000" p-id="119260" data-spm-anchor-id="a313x.search_index.0.i140.2ca13a81isimtY" class="selected"></path><path d="M540.899556 230.314667a28.444444 28.444444 0 1 0-56.888889 0V512a28.444444 28.444444 0 0 0 6.4 17.976889l138.410666 169.614222a28.444444 28.444444 0 1 0 44.088889-35.953778l-132.010666-161.763555V230.314667z" fill="#F27233" p-id="119261"></path></svg>