<?xml version="1.0" standalone="no"?><!DOCTYPE svg PUBLIC "-//W3C//DTD SVG 1.1//EN" "http://www.w3.org/Graphics/SVG/1.1/DTD/svg11.dtd"><svg t="1774608852767" class="icon" viewBox="0 0 1312 1024" version="1.1" xmlns="http://www.w3.org/2000/svg" p-id="119723" xmlns:xlink="http://www.w3.org/1999/xlink" width="256.25" height="200"><path d="M753.130657 656.729324a490.709327 490.709327 0 0 1 246.299749 162.344665 148.535918 148.535918 0 0 1 26.672409 77.969543A128.059068 128.059068 0 0 1 892.583254 1023.842486H129.269302A128.269087 128.269087 0 0 1 0.002625 896.833513a112.832692 112.832692 0 0 1 20.47685-65.630929H18.484295a486.246424 486.246424 0 0 1 250.605137-162.29216c8.873302-3.045275 22.157001-7.350664 29.402656-9.660873a181.456391 181.456391 0 0 0 29.875199-14.858842 89.258063 89.258063 0 0 0 36.75332-71.826488c0-30.820284-4.147875-26.724914-43.106394-78.022048a330.77988 330.77988 0 0 1-65.630928-199.04548C256.540799 133.309542 371.368671 0 513.131477 0s256.485669 129.266677 256.485669 291.401323a305.735118 305.735118 0 0 1-65.683433 199.097985c-16.433985 20.47685-43.106394 47.254269-43.106394 77.969543a86.527816 86.527816 0 0 0 36.75332 71.826488 2360.088192 2360.088192 0 0 0 55.445008 16.486489z m322.221607-30.76778a459.941547 459.941547 0 0 1 212.276675 128.269087A102.016715 102.016715 0 0 1 1312.621197 819.599036a107.004666 107.004666 0 0 1-114.880378 100.284059h-79.964723a138.087474 138.087474 0 0 0 15.016356-63.005692 178.516126 178.516126 0 0 0-44.996564-114.25032 557.915398 557.915398 0 0 0-274.75732-168.015177 134.569656 134.569656 0 0 1-37.488386-11.603548 121.600984 121.600984 0 0 1 22.47203-27.985028 356.034661 356.034661 0 0 0 82.432446-223.932729A324.636825 324.636825 0 0 0 815.558796 110.25996a195.842691 195.842691 0 0 1 55.024971-6.983131 226.557965 226.557965 0 0 1 219.784853 233.331077 244.252064 244.252064 0 0 1-57.492693 158.616829 101.176639 101.176639 0 0 0-34.968159 60.642978 62.638158 62.638158 0 0 0 29.980208 56.02256 248.609957 248.609957 0 0 0 47.254269 13.966262z" fill="#5077AA" p-id="119724"></path></svg>