<?xml version="1.0" standalone="no"?><!DOCTYPE svg PUBLIC "-//W3C//DTD SVG 1.1//EN" "http://www.w3.org/Graphics/SVG/1.1/DTD/svg11.dtd"><svg t="1774584547466" class="icon" viewBox="0 0 1024 1024" version="1.1" xmlns="http://www.w3.org/2000/svg" p-id="39357" xmlns:xlink="http://www.w3.org/1999/xlink" width="200" height="200"><path d="M512 0c282.760533 0 512 229.239467 512 512 0 282.760533-229.239467 512-512 512-282.760533 0-512-229.239467-512-512C0 229.239467 229.239467 0 512 0z m244.667733 720.896h-25.770666v-318.6688a23.4496 23.4496 0 0 0-12.0832-20.7872l-130.423467-76.219733a24.098133 24.098133 0 0 0-24.200533-0.273067 24.644267 24.644267 0 0 0-12.0832 20.753067v394.683733h-27.3408V263.68a24.3712 24.3712 0 0 0-33.928534-22.357333L287.573333 329.147733a24.405333 24.405333 0 0 0-14.711466 22.3232v369.698134h-25.4976a8.465067 8.465067 0 0 0-8.430934 8.430933v27.8528c0 4.744533 3.959467 8.430933 8.430934 8.430933H756.394667a8.465067 8.465067 0 0 0 8.430933-8.430933v-27.8528a8.021333 8.021333 0 0 0-8.192-8.704z m-377.070933-29.422933a8.465067 8.465067 0 0 1-8.3968 8.3968h-27.101867a8.465067 8.465067 0 0 1-8.3968-8.3968v-27.101867c0-4.744533 3.925333-8.3968 8.3968-8.3968h27.101867c4.7104 0 8.3968 3.925333 8.3968 8.3968v27.101867z m0-68.130134a8.465067 8.465067 0 0 1-8.3968 8.430934h-27.101867a8.465067 8.465067 0 0 1-8.3968-8.430934v-27.067733c0-4.744533 3.925333-8.3968 8.3968-8.3968h27.101867c4.7104 0 8.3968 3.925333 8.3968 8.3968v27.067733z m0-68.096a8.465067 8.465067 0 0 1-8.3968 8.430934h-27.101867a8.465067 8.465067 0 0 1-8.3968-8.430934v-27.067733c0-4.744533 3.925333-8.430933 8.3968-8.430933h27.101867c4.7104 0 8.3968 3.959467 8.3968 8.430933v27.067733z m0-68.369066a8.465067 8.465067 0 0 1-8.3968 8.430933h-27.101867a8.465067 8.465067 0 0 1-8.3968-8.430933v-27.067734c0-4.744533 3.925333-8.3968 8.3968-8.3968h27.101867c4.7104 0 8.3968 3.925333 8.3968 8.3968v27.067734z m0-68.096a8.465067 8.465067 0 0 1-8.3968 8.430933h-27.101867a8.465067 8.465067 0 0 1-8.3968-8.430933v-27.067734c0-4.744533 3.925333-8.430933 8.3968-8.430933h27.101867c4.7104 0 8.3968 3.959467 8.3968 8.430933v27.067734z m82.295467 272.6912a8.465067 8.465067 0 0 1-8.3968 8.3968h-27.067734a8.465067 8.465067 0 0 1-8.430933-8.3968v-27.101867c0-4.744533 3.959467-8.3968 8.430933-8.3968h26.794667c4.744533 0 8.430933 3.925333 8.430933 8.3968l0.238934 27.101867z m0-68.130134a8.465067 8.465067 0 0 1-8.3968 8.430934h-27.067734a8.465067 8.465067 0 0 1-8.430933-8.430934v-27.067733c0-4.744533 3.959467-8.3968 8.430933-8.3968h26.794667c4.744533 0 8.430933 3.925333 8.430933 8.3968l0.238934 27.067733z m0-68.096a8.465067 8.465067 0 0 1-8.3968 8.430934h-27.067734a8.465067 8.465067 0 0 1-8.430933-8.430934v-27.067733c0-4.744533 3.959467-8.430933 8.430933-8.430933h26.794667c4.744533 0 8.430933 3.959467 8.430933 8.430933l0.238934 27.067733z m0-68.369066a8.465067 8.465067 0 0 1-8.3968 8.430933h-27.067734a8.465067 8.465067 0 0 1-8.430933-8.430933v-27.067734c0-4.744533 3.959467-8.3968 8.430933-8.3968h26.794667c4.744533 0 8.430933 3.925333 8.430933 8.3968l0.238934 27.067734z m0-68.096a8.465067 8.465067 0 0 1-8.3968 8.430933h-27.067734a8.465067 8.465067 0 0 1-8.430933-8.430933v-27.067734c0-4.744533 3.959467-8.430933 8.430933-8.430933h26.794667c4.744533 0 8.430933 3.959467 8.430933 8.430933l0.238934 27.067734z m0-68.369067a8.465067 8.465067 0 0 1-8.3968 8.430933h-27.067734a8.465067 8.465067 0 0 1-8.430933-8.430933v-27.067733c0-4.744533 3.959467-8.3968 8.430933-8.3968h26.794667c4.744533 0 8.430933 3.925333 8.430933 8.3968l0.238934 27.067733z m200.9088 341.060267a8.465067 8.465067 0 0 1-8.430934 8.3968h-27.067733a8.465067 8.465067 0 0 1-8.430933-8.3968v-27.101867c0-4.744533 3.959467-8.3968 8.430933-8.3968h27.067733c4.744533 0 8.430933 3.925333 8.430934 8.3968v27.101867z m0-68.130134a8.465067 8.465067 0 0 1-8.430934 8.430934h-27.067733a8.465067 8.465067 0 0 1-8.430933-8.430934v-27.067733c0-4.744533 3.959467-8.3968 8.430933-8.3968h27.067733c4.744533 0 8.430933 3.925333 8.430934 8.3968v27.067733z m0-68.096a8.465067 8.465067 0 0 1-8.430934 8.430934h-27.067733a8.465067 8.465067 0 0 1-8.430933-8.430934v-27.067733c0-4.744533 3.959467-8.430933 8.430933-8.430933h27.067733c4.744533 0 8.430933 3.959467 8.430934 8.430933v27.067733z m0-68.369066a8.465067 8.465067 0 0 1-8.430934 8.430933h-27.067733a8.465067 8.465067 0 0 1-8.430933-8.430933v-27.067734c0-4.744533 3.959467-8.3968 8.430933-8.3968h27.067733c4.744533 0 8.430933 3.925333 8.430934 8.3968v27.067734z m0-68.096a8.465067 8.465067 0 0 1-8.430934 8.430933h-27.067733a8.465067 8.465067 0 0 1-8.430933-8.430933v-27.067734c0-4.744533 3.959467-8.430933 8.430933-8.430933h27.067733c4.744533 0 8.430933 3.959467 8.430934 8.430933v27.067734z" fill="#4DCCAE" p-id="39358"></path></svg>