<?xml version="1.0" standalone="no"?><!DOCTYPE svg PUBLIC "-//W3C//DTD SVG 1.1//EN" "http://www.w3.org/Graphics/SVG/1.1/DTD/svg11.dtd"><svg t="1774582053443" class="icon" viewBox="0 0 1024 1024" version="1.1" xmlns="http://www.w3.org/2000/svg" p-id="24993" xmlns:xlink="http://www.w3.org/1999/xlink" width="200" height="200"><path d="M320.75 615.225c36.743-28.014 79.261-44.033 124.544-44.033h149.412c45.246 0 87.745 16.01 124.481 44.012v-9.014H830.75V462.62H894.5v175.476c0 17.62-13.173 31.905-29.423 31.905H772.87C818.344 730.825 846.5 814.721 846.5 907.234v19.916C846.5 1024 729.828 1024 594.706 1024H445.294C304.652 1024 193.5 1024 193.5 927.15v-19.916c0-92.513 28.137-176.41 73.6-237.234H158.923C142.673 670 129.5 655.716 129.5 638.095V462.62h63.75V606.19h127.5v9.035zM193.25 191.43H129.5V31.905C129.5 14.285 142.673 0 158.923 0H320.75v63.81H193.25v127.619z m637.5 0V63.809H719.187V0h145.89C881.327 0 894.5 14.284 894.5 31.905v159.524h-63.75zM519.616 541.028c-109.527 0-198.701-89.307-198.701-199.014C320.915 232.307 410.089 143 519.692 143c109.602 0 198.776 89.232 198.7 199.014 0 109.707-89.173 199.014-198.776 199.014z" fill="#ffffff" p-id="24994"></path></svg>