<?xml version="1.0" standalone="no"?><!DOCTYPE svg PUBLIC "-//W3C//DTD SVG 1.1//EN" "http://www.w3.org/Graphics/SVG/1.1/DTD/svg11.dtd"><svg t="1774582034409" class="icon" viewBox="0 0 1024 1024" version="1.1" xmlns="http://www.w3.org/2000/svg" p-id="23919" xmlns:xlink="http://www.w3.org/1999/xlink" width="200" height="200"><path d="M939.564912 359.765333v-143.719298c0-19.761404-16.168421-35.929825-35.929824-35.929824h-179.649123v-71.85965h-71.859649v71.85965h-287.438597v-71.85965h-71.859649v71.85965h-179.649123c-19.761404 0-35.929825 16.168421-35.929824 35.929824v143.719298h862.315789zM77.249123 431.624982v467.08772c0 19.761404 16.168421 35.929825 35.929824 35.929824h790.456141c19.761404 0 35.929825-16.168421 35.929824-35.929824v-467.08772h-862.315789z m377.263158 341.333334h-143.719299v-71.859649h143.719299v71.859649z m21.557894-219.17193l-91.621052 75.452632c-7.185965 5.389474-14.37193 8.982456-23.354386 8.982456s-17.964912-3.592982-25.150877-10.778948l-52.098246-52.098245c-14.37193-14.37193-14.37193-35.929825 0-50.301755 14.37193-14.37193 35.929825-14.37193 50.301754 0l30.540351 30.540351 66.470176-55.691228c16.168421-12.575439 37.726316-10.778947 50.301754 5.389474 12.575439 12.575439 10.778947 35.929825-5.389474 48.505263z m265.880702 219.17193h-143.719298v-71.859649h143.719298v71.859649z m0-179.649123h-143.719298v-71.859649h143.719298v71.859649z" fill="#ffffff" p-id="23920"></path></svg>