<?xml version="1.0" standalone="no"?><!DOCTYPE svg PUBLIC "-//W3C//DTD SVG 1.1//EN" "http://www.w3.org/Graphics/SVG/1.1/DTD/svg11.dtd"><svg t="1774582117092" class="icon" viewBox="0 0 1024 1024" version="1.1" xmlns="http://www.w3.org/2000/svg" p-id="27102" xmlns:xlink="http://www.w3.org/1999/xlink" width="200" height="200"><path d="M872.174933 953.344H136.533333a136.533333 136.533333 0 0 1-136.533333-136.533333V372.4288a136.533333 136.533333 0 0 1 136.533333-136.533333h109.7728v-24.917334a133.973333 133.973333 0 0 1 140.765867-125.610666h234.564267a133.973333 133.973333 0 0 1 140.765866 125.576533v24.917333h109.7728a136.704 136.704 0 0 1 136.533334 136.533334v444.381866a136.704 136.704 0 0 1-136.533334 136.567467z m-367.8208-505.173333a164.215467 164.215467 0 1 0 164.215467 164.215466 164.386133 164.386133 0 0 0-164.215467-164.215466z m228.693334-82.875734a29.320533 29.320533 0 0 0 0 58.641067h93.866666a29.320533 29.320533 0 0 0 0-58.641067z m-228.693334 352.6656a105.5744 105.5744 0 1 1 105.540267-105.540266 105.813333 105.813333 0 0 1-105.540267 105.540266z" fill="#ffffff" p-id="27103"></path></svg>