<?xml version="1.0" standalone="no"?><!DOCTYPE svg PUBLIC "-//W3C//DTD SVG 1.1//EN" "http://www.w3.org/Graphics/SVG/1.1/DTD/svg11.dtd"><svg t="1774585731168" class="icon" viewBox="0 0 1024 1024" version="1.1" xmlns="http://www.w3.org/2000/svg" p-id="70303" xmlns:xlink="http://www.w3.org/1999/xlink" width="200" height="200"><path d="M520.533333 870.4a85.333333 85.333333 0 0 1-170.666666 0 86.357333 86.357333 0 0 1 1.706666-17.066667h167.253334a86.357333 86.357333 0 0 1 1.706666 17.066667zM435.2 68.266667a34.133333 34.133333 0 0 1 34.133333 34.133333v68.266667h-68.266666v-68.266667a34.133333 34.133333 0 0 1 34.133333-34.133333z" fill="#FF8D8D" p-id="70304"></path><path d="M691.2 392.533333v187.733334a17.066667 17.066667 0 0 1-10.837333 15.872A204.8 204.8 0 0 0 554.666667 785.066667a200.618667 200.618667 0 0 0 5.546666 47.189333 17.066667 17.066667 0 0 1-16.469333 21.077333H110.933333a17.066667 17.066667 0 0 1-17.066666-17.066666v-77.738667a17.066667 17.066667 0 0 1 16.64-17.066667 68.266667 68.266667 0 0 0 68.693333-68.266666V392.533333a256 256 0 0 1 221.866667-253.44 244.992 244.992 0 0 1 68.266666 0A256 256 0 0 1 691.2 392.533333z" fill="#EA1C1C" p-id="70305"></path><path d="M759.466667 614.4a170.666667 170.666667 0 1 1-170.666667 170.666667 170.666667 170.666667 0 0 1 170.666667-170.666667z m-76.8 196.266667h51.2v51.2a25.6 25.6 0 0 0 51.2 0v-51.2h51.2a25.6 25.6 0 0 0 0-51.2h-51.2v-51.2a25.6 25.6 0 0 0-51.2 0v51.2h-51.2a25.6 25.6 0 0 0 0 51.2z" fill="#EA1C1C" p-id="70306"></path></svg>