<?xml version="1.0" standalone="no"?><!DOCTYPE svg PUBLIC "-//W3C//DTD SVG 1.1//EN" "http://www.w3.org/Graphics/SVG/1.1/DTD/svg11.dtd"><svg t="1774585633920" class="icon" viewBox="0 0 1024 1024" version="1.1" xmlns="http://www.w3.org/2000/svg" p-id="66509" xmlns:xlink="http://www.w3.org/1999/xlink" width="200" height="200"><path d="M921.6 716.8c56.3 0 102.4-46.1 102.4-102.4v-512C1024 46.1 977.9 0 921.6 0H102.4C46.1 0 0 46.1 0 102.4v512c0 56.3 46.1 102.4 102.4 102.4h307.2v153.6H76.8C34.6 870.4 0 905 0 947.2c0 42.2 34.6 76.8 76.8 76.8h870.4c42.2 0 76.8-34.6 76.8-76.8 0-42.2-34.6-76.8-76.8-76.8H614.4V716.8h307.2zM716.8 409.6c0-28.2 23-51.2 51.2-51.2s51.2 23 51.2 51.2V512c0 28.2-23 51.2-51.2 51.2s-51.2-23-51.2-51.2V409.6zM307.2 512c0 28.2-23 51.2-51.2 51.2s-51.2-23-51.2-51.2V307.2c0-28.2 23-51.2 51.2-51.2s51.2 23 51.2 51.2V512z m153.6-307.2c0-28.2 23-51.2 51.2-51.2s51.2 23 51.2 51.2V512c0 28.2-23 51.2-51.2 51.2s-51.2-23-51.2-51.2V204.8z" fill="#00a2ff" p-id="66510"></path></svg>