<?xml version="1.0" standalone="no"?><!DOCTYPE svg PUBLIC "-//W3C//DTD SVG 1.1//EN" "http://www.w3.org/Graphics/SVG/1.1/DTD/svg11.dtd"><svg t="1774586088308" class="icon" viewBox="0 0 1024 1024" version="1.1" xmlns="http://www.w3.org/2000/svg" p-id="79349" xmlns:xlink="http://www.w3.org/1999/xlink" width="200" height="200"><path d="M407.722667 919.722667h208.554666c146.517333 0 219.733333 0 272.341334-33.493334 22.784-14.506667 42.325333-33.109333 57.6-54.826666 35.114667-50.090667 35.114667-119.850667 35.114666-259.370667 0-139.52 0-209.237333-35.157333-259.328a203.861333 203.861333 0 0 0-57.557333-54.826667c-52.608-33.493333-125.866667-33.493333-272.341334-33.493333H407.68c-146.474667 0-219.733333 0-272.298667 33.493333a203.946667 203.946667 0 0 0-57.6 54.826667C42.666667 362.794667 42.666667 432.512 42.666667 571.946667v0.085333c0 139.52 0 209.28 35.157333 259.413333a203.946667 203.946667 0 0 0 57.557333 54.784c52.608 33.493333 125.866667 33.493333 272.341334 33.493334zM512 460.288c-64.810667 0-117.333333 50.048-117.333333 111.786667 0 61.696 52.522667 111.701333 117.333333 111.701333s117.333333-50.005333 117.333333-111.744c0-61.696-52.522667-111.744-117.333333-111.744z m-195.541333 111.786667c0-102.912 87.552-186.282667 195.541333-186.282667s195.541333 83.370667 195.541333 186.24c0 102.869333-87.552 186.24-195.541333 186.24s-195.541333-83.370667-195.541333-186.24z m443.264-149.034667c0-20.565333 17.493333-37.248 39.082666-37.248h26.069334c21.632 0 39.125333 16.682667 39.125333 37.248s-17.493333 37.248-39.125333 37.248h-26.026667c-21.632 0-39.125333-16.64-39.125333-37.248zM324.266667 131.669333C324.266667 106.069333 343.68 85.333333 367.573333 85.333333h288.853334c23.893333 0 43.306667 20.736 43.306666 46.336 0 25.6-19.413333 46.378667-43.306666 46.378667h-288.853334c-23.893333 0-43.306667-20.778667-43.306666-46.378667z" fill="#3264ED" p-id="79350"></path></svg>