<?xml version="1.0" standalone="no"?><!DOCTYPE svg PUBLIC "-//W3C//DTD SVG 1.1//EN" "http://www.w3.org/Graphics/SVG/1.1/DTD/svg11.dtd"><svg t="1774585897812" class="icon" viewBox="0 0 1179 1024" version="1.1" xmlns="http://www.w3.org/2000/svg" p-id="76352" xmlns:xlink="http://www.w3.org/1999/xlink" width="230.2734375" height="200"><path d="M649.61454 20.32342c-76.048342 60.439374-234.951262 145.199698-349.296024 226.874529-1.270497 0.816748-2.540995 5.354239-3.902242 6.080237-13.521722 7.622984-19.601959 28.495441-93.109306 28.495441H59.922266c-36.935173 0-59.531876 17.242464-59.531877 56.174133v344.849284a52.271891 52.271891 0 0 0 59.531877 57.989129H203.669967c72.599849 0 79.043086 21.053956 92.564808 28.495441 1.270497 0.725998 2.540995 5.263489 3.811492 6.080238 110.987019 81.67483 270.888187 172.424642 349.477524 230.86752 23.685701 17.423964 102.275038 48.0974 102.275037-59.713376v-871.19819c0-107.901526-79.315335-73.507347-102.275037-55.357385z" fill="#3685F1" p-id="76353"></path><path d="M1046.009717 883.444877l-138.393463-114.344762a403.927411 403.927411 0 0 0 0-513.916183l138.393463-114.344762a583.339788 583.339788 0 0 1 0 742.605707z" fill="#3685F1" p-id="76354"></path></svg>