<?xml version="1.0" standalone="no"?><!DOCTYPE svg PUBLIC "-//W3C//DTD SVG 1.1//EN" "http://www.w3.org/Graphics/SVG/1.1/DTD/svg11.dtd"><svg t="1774586022873" class="icon" viewBox="0 0 1024 1024" version="1.1" xmlns="http://www.w3.org/2000/svg" p-id="78085" xmlns:xlink="http://www.w3.org/1999/xlink" width="200" height="200"><path d="M747.482074 262.371556L549.220504 556.600889h47.847348a22.755556 22.755556 0 0 1 0 45.511111H420.166163a22.755556 22.755556 0 0 1 0-45.511111h74.653393c0.273067-0.455111 0.455111-0.910222 0.758518-1.365333l214.531793-318.426075a22.535585 22.535585 0 0 1 31.36474-5.992296 22.801067 22.801067 0 0 1 6.007467 31.554371zM380.017778 714.524444a22.755556 22.755556 0 0 1 0-45.435259h257.190874a22.755556 22.755556 0 0 1 0 45.435259H380.017778z m126.756029-383.127703H341.758104a20.138667 20.138667 0 0 0-20.085571 20.176592v382.976a20.138667 20.138667 0 0 0 20.085571 20.176593h333.748148a20.138667 20.138667 0 0 0 20.093155-20.176593V527.54963a22.581096 22.581096 0 1 1 45.162193 0v206.999703a65.573926 65.573926 0 0 1-65.232593 65.687704H341.758104a65.573926 65.573926 0 0 1-65.232593-65.687704V351.573333a65.573926 65.573926 0 0 1 65.232593-65.687703h165.023289a22.755556 22.755556 0 0 1 0 45.511111z" fill="#FB4F73" p-id="78086"></path></svg>