<?xml version="1.0" standalone="no"?><!DOCTYPE svg PUBLIC "-//W3C//DTD SVG 1.1//EN" "http://www.w3.org/Graphics/SVG/1.1/DTD/svg11.dtd"><svg t="1774589045874" class="icon" viewBox="0 0 1024 1024" version="1.1" xmlns="http://www.w3.org/2000/svg" p-id="86842" xmlns:xlink="http://www.w3.org/1999/xlink" width="200" height="200"><path d="M178.12903203 600.54838701v232.25806494c0 40.64516104 34.83870997 74.03225801 76.93548399 74.03225801H744.25806494c42.09677402 0 76.93548398-33.38709697 76.93548311-74.03225801V599.09677402L178.12903203 600.54838701z" fill="#D3EAFF" p-id="86843"></path><path d="M279.74193506 76.51612901h464.51612988c63.87096797 0 116.12903203 52.25806494 116.12903203 116.12903203v638.70967792c0 63.87096797-52.25806494 116.12903203-116.12903203 116.12903203H279.74193506c-63.87096797 0-116.12903203-52.25806494-116.12903203-116.12903203V192.64516104c0-63.87096797 52.25806494-116.12903203 116.12903203-116.12903203z m0 58.06451601c-31.93548398 0-58.06451602 26.12903203-58.06451602 58.06451602v638.70967792c0 31.93548398 26.12903203 58.06451602 58.06451602 58.06451602h464.51612988c31.93548398 0 58.06451602-26.12903203 58.06451602-58.06451602V192.64516104c0-31.93548398-26.12903203-58.06451602-58.06451602-58.06451602H279.74193506z" fill="#1890FF" p-id="86844"></path><path d="M366.83870996 250.70967705h290.32258008c15.967742 0 29.032258 13.06451602 29.03225801 29.03225801s-13.06451602 29.032258-29.03225802 29.03225889H366.83870996c-15.967742 0-29.032258-13.06451602-29.03225801-29.03225889s13.06451602-29.032258 29.03225802-29.03225801zM366.83870996 381.35483896h290.32258008c15.967742 0 29.032258 13.06451602 29.03225801 29.03225802s-13.06451602 29.032258-29.03225802 29.032258H366.83870996c-15.967742 0-29.032258-13.06451602-29.03225801-29.032258s13.06451602-29.032258 29.03225802-29.03225802zM366.83870996 512h290.32258008c15.967742 0 29.032258 13.06451602 29.03225801 29.032258s-13.06451602 29.032258-29.03225802 29.03225802H366.83870996c-15.967742 0-29.032258-13.06451602-29.03225801-29.03225802s13.06451602-29.032258 29.03225802-29.032258z" fill="#1890FF" p-id="86845"></path><path d="M629.58064502 613.61290303c-36.29032295 0-66.77419395 30.48387099-66.77419307 66.77419395 0 23.22580606 13.06451602 45 31.93548311 56.61290302l-5.80645108 52.25806494h-53.70967793c-11.61290302 0-20.32258096 8.70967705-20.32258008 20.32258008v43.54838701c0 11.61290302 8.70967705 20.32258096 20.32258008 20.32258096h184.35483897c11.61290302 0 20.32258096-8.70967705 20.32258095-20.32258096v-43.54838701c0-11.61290302-8.70967705-20.32258096-20.32258095-20.32258008h-50.80645108l-5.80645195-52.25806494c20.32258096-11.61290302 31.93548398-33.38709697 31.93548399-56.61290302 0-36.29032295-30.48387099-66.77419395-65.32258096-66.77419395z" fill="#FFC13D" p-id="86846"></path></svg>