<?xml version="1.0" standalone="no"?><!DOCTYPE svg PUBLIC "-//W3C//DTD SVG 1.1//EN" "http://www.w3.org/Graphics/SVG/1.1/DTD/svg11.dtd"><svg t="1774588908712" class="icon" viewBox="0 0 1024 1024" version="1.1" xmlns="http://www.w3.org/2000/svg" p-id="84035" xmlns:xlink="http://www.w3.org/1999/xlink" width="200" height="200"><path d="M729.6 505.6L620.8 396.8 889.6 128H102.4C57.6 128 25.6 160 25.6 204.8v614.4c0 44.8 32 76.8 76.8 76.8h819.2c44.8 0 76.8-32 76.8-76.8V236.8l-268.8 268.8zM595.2 428.8c0-12.8 12.8-12.8 12.8 0L697.6 512v12.8l-108.8 12.8s-12.8 0-12.8-12.8l19.2-96zM166.4 268.8h236.8c19.2 0 32 12.8 32 32s-12.8 32-32 32H166.4c-19.2 0-32-12.8-32-32 0-12.8 25.6-32 32-32z m0 204.8h236.8c19.2 0 32 12.8 32 32s-12.8 32-32 32H166.4c-12.8 0-32-12.8-32-32s25.6-32 32-32z m659.2 275.2H166.4c-19.2 0-32-12.8-32-32s12.8-32 32-32h659.2c19.2 0 32 12.8 32 32 0 25.6-12.8 32-32 32z" fill="#00B0FF" p-id="84036"></path></svg>